<svg data-v-423bf9ae="" xmlns="http://www.w3.org/2000/svg" viewBox="0 0 455 112" class="iconLeft"><!----><!----><!----><g data-v-423bf9ae="" id="5d0aee9c-b0f3-4a74-9308-b0f782a45863" fill="#081828" transform="matrix(5.272407679843658,0,0,5.272407679843658,99.20355427546218,29.245130877785417)"><path d="M2.84 4.76L2.84 5.32Q2.84 7.07 3.23 7.90Q3.61 8.72 4.65 8.72L4.65 8.72L4.77 8.72Q6.29 8.72 6.29 6.78L6.29 6.78L8.55 6.78L8.55 6.90Q8.55 8.89 7.59 9.79Q6.62 10.68 4.65 10.68L4.65 10.68Q2.51 10.68 1.53 9.41Q0.55 8.15 0.55 5.32L0.55 5.32L0.55 4.76Q0.55 1.93 1.53 0.66Q2.51-0.60 4.65-0.60L4.65-0.60Q6.64-0.60 7.59 0.30Q8.55 1.20 8.55 3.22L8.55 3.22L8.55 3.72L6.29 3.72Q6.29 2.52 5.96 1.94Q5.63 1.36 4.77 1.36L4.77 1.36L4.65 1.36Q3.61 1.36 3.23 2.18Q2.84 3.01 2.84 4.76L2.84 4.76ZM12.99 10.68L12.99 10.68Q11.27 10.68 10.39 9.70Q9.52 8.72 9.52 7.04L9.52 7.04L9.52 6.54Q9.52 4.86 10.39 3.88Q11.27 2.90 12.99 2.90L12.99 2.90Q14.73 2.90 15.60 3.88Q16.46 4.86 16.46 6.54L16.46 6.54L16.46 7.04Q16.46 8.72 15.60 9.70Q14.73 10.68 12.99 10.68ZM11.73 7.04Q11.73 8.78 12.99 8.78Q14.25 8.78 14.25 7.04L14.25 7.04L14.25 6.54Q14.25 4.80 12.99 4.80Q11.73 4.80 11.73 6.54L11.73 6.54L11.73 7.04ZM20.78 10.68L20.78 10.68Q19.05 10.68 18.18 9.70Q17.30 8.72 17.30 7.04L17.30 7.04L17.30 6.54Q17.30 4.86 18.18 3.88Q19.05 2.90 20.78 2.90L20.78 2.90Q22.51 2.90 23.38 3.88Q24.25 4.86 24.25 6.54L24.25 6.54L24.25 7.04Q24.25 8.72 23.38 9.70Q22.51 10.68 20.78 10.68ZM19.52 7.04Q19.52 8.78 20.78 8.78Q22.04 8.78 22.04 7.04L22.04 7.04L22.04 6.54Q22.04 4.80 20.78 4.80Q19.52 4.80 19.52 6.54L19.52 6.54L19.52 7.04ZM27.58 10.50L25.37 10.50L25.37-0.70L27.58-0.70L27.58 5.60L29.64 3.08L32.28 3.08L29.83 5.89L32.28 10.50L29.71 10.50L28.31 7.64L27.58 8.48L27.58 10.50ZM36.12 10.50L36.12-0.42L39.70-0.42Q40.42-0.42 40.98-0.30Q41.55-0.18 42.09 0.13Q42.63 0.43 42.92 1.06Q43.22 1.68 43.22 2.60L43.22 2.60L43.22 2.88Q43.22 4.24 42.15 4.86L42.15 4.86Q43.50 5.50 43.50 7.08L43.50 7.08L43.50 7.36Q43.50 8.32 43.18 8.97Q42.87 9.62 42.30 9.93Q41.73 10.25 41.15 10.37Q40.56 10.50 39.82 10.50L39.82 10.50L36.12 10.50ZM39.89 5.91L39.89 5.91L38.39 5.91L38.39 8.54L39.89 8.54Q40.45 8.54 40.82 8.25Q41.20 7.97 41.20 7.28L41.20 7.28L41.20 7.15Q41.20 5.91 39.89 5.91ZM39.69 1.54L39.69 1.54L38.39 1.54L38.39 3.93L39.69 3.93Q40.92 3.93 40.92 2.83L40.92 2.83L40.92 2.65Q40.92 1.54 39.69 1.54ZM48.06 10.68L48.06 10.68Q46.34 10.68 45.47 9.70Q44.59 8.72 44.59 7.04L44.59 7.04L44.59 6.54Q44.59 4.86 45.47 3.88Q46.34 2.90 48.06 2.90L48.06 2.90Q49.80 2.90 50.67 3.88Q51.53 4.86 51.53 6.54L51.53 6.54L51.53 7.04Q51.53 8.72 50.67 9.70Q49.80 10.68 48.06 10.68ZM46.80 7.04Q46.80 8.78 48.06 8.78Q49.32 8.78 49.32 7.04L49.32 7.04L49.32 6.54Q49.32 4.80 48.06 4.80Q46.80 4.80 46.80 6.54L46.80 6.54L46.80 7.04ZM55.85 10.68L55.85 10.68Q54.12 10.68 53.25 9.70Q52.37 8.72 52.37 7.04L52.37 7.04L52.37 6.54Q52.37 4.86 53.25 3.88Q54.12 2.90 55.85 2.90L55.85 2.90Q57.58 2.90 58.45 3.88Q59.32 4.86 59.32 6.54L59.32 6.54L59.32 7.04Q59.32 8.72 58.45 9.70Q57.58 10.68 55.85 10.68ZM54.59 7.04Q54.59 8.78 55.85 8.78Q57.11 8.78 57.11 7.04L57.11 7.04L57.11 6.54Q57.11 4.80 55.85 4.80Q54.59 4.80 54.59 6.54L54.59 6.54L54.59 7.04ZM62.65 10.50L60.44 10.50L60.44-0.70L62.65-0.70L62.65 5.60L64.71 3.08L67.35 3.08L64.90 5.89L67.35 10.50L64.78 10.50L63.38 7.64L62.65 8.48L62.65 10.50Z"></path></g><!----><g data-v-423bf9ae="" id="59454930-1167-4281-8a8e-587b44669cce" transform="matrix(1.1111000061035157,0,0,1.1111000061035157,0.9482842832071086,0.4454438477008793)" stroke="none" fill="#ffa500"><path d="M68.759.001C57.947.087.009.112.009.112-.062 40.059.32 69.361.345 94.308L3.916 100h69.978V8.259h-2.12c-1.046-1.082-3.714-5.468-3.684-5.468.254-.001.304.035 2.79 0 0 0-1.746-2.308-2.121-2.79zM28.022 2.792c13.441-.036 28.818-.054 36.496 0 0 .053 3.412 5.219 3.683 5.469L6.482 7.813l-3.46-4.911c0 .001 11.56-.081 25-.11zm-17.187 8.705h5.134v86.049h-5.134V11.497z"></path></g><!----></svg>